<svg width="16" height="17" viewBox="0 0 16 17" fill="none" xmlns="http://www.w3.org/2000/svg">
<g id="Interface essential/Download">
<g id="Icon">
<path d="M7.54049 11.5267L5.05382 9.04667C4.94838 8.94159 4.88911 8.79886 4.88911 8.65C4.88911 8.50114 4.94838 8.35841 5.05382 8.25333C5.27558 8.04084 5.6254 8.04084 5.84716 8.25333L7.37382 9.78667V3.06C7.37382 2.75072 7.62454 2.5 7.93382 2.5C8.2431 2.5 8.49382 2.75072 8.49382 3.06V9.78667L10.0205 8.25333C10.2422 8.04084 10.5921 8.04084 10.8138 8.25333C10.9193 8.35841 10.9785 8.50114 10.9785 8.65C10.9785 8.79886 10.9193 8.94159 10.8138 9.04667L8.32716 11.5267C8.22453 11.6339 8.08227 11.6942 7.93382 11.6933C7.78506 11.6958 7.64217 11.6353 7.54049 11.5267Z" fill="#15616D"/>
<path d="M11.4138 6.11333H12.2205C13.898 6.14978 15.2303 7.53571 15.2005 9.21333V11.7533C15.2303 13.431 13.898 14.8169 12.2205 14.8533L3.64716 14.8C1.96967 14.7635 0.637392 13.3776 0.667161 11.7V9.16C0.647488 8.35078 0.950654 7.56699 1.50975 6.98164C2.06884 6.39628 2.83789 6.05747 3.64716 6.04H4.45383C4.76311 6.04 5.01383 6.29072 5.01383 6.6C5.01383 6.90928 4.76311 7.16 4.45383 7.16H3.64716C3.13426 7.17558 2.64894 7.39582 2.29949 7.77157C1.95004 8.14732 1.76554 8.64732 1.78716 9.16V11.68C1.76554 12.1927 1.95004 12.6927 2.29949 13.0684C2.64894 13.4442 3.13426 13.6644 3.64716 13.68L12.2205 13.7733C12.7334 13.7578 13.2187 13.5375 13.5682 13.1618C13.9176 12.786 14.1021 12.286 14.0805 11.7733V9.23333C14.1021 8.72066 13.9176 8.22066 13.5682 7.8449C13.2187 7.46915 12.7334 7.24891 12.2205 7.23333H11.4138C11.1045 7.23333 10.8538 6.98261 10.8538 6.67333C10.8538 6.36405 11.1045 6.11333 11.4138 6.11333Z" fill="#15616D"/>
</g>
</g>
</svg>
