<svg width="16" height="17" viewBox="0 0 16 17" fill="none" xmlns="http://www.w3.org/2000/svg">
<g id="Interface essential/Pen">
<g id="Icon">
<path fill-rule="evenodd" clip-rule="evenodd" d="M14.1157 10.5225L14.6224 14.0425C14.659 14.3136 14.5766 14.5872 14.3964 14.7929C14.2162 14.9986 13.9559 15.1164 13.6824 15.1159H13.5424L10.0224 14.6092C9.54525 14.5434 9.10274 14.3233 8.76238 13.9825L2.26905 7.48254C1.00581 6.17461 1.02388 4.09559 2.30965 2.80981C3.59543 1.52403 5.67445 1.50596 6.98238 2.7692L13.4891 9.26254C13.8299 9.60289 14.0499 10.0454 14.1157 10.5225ZM9.50238 13.2759C9.68678 13.4529 9.91819 13.5733 10.1691 13.6225L13.6424 14.0825L13.1557 10.6359C13.1065 10.385 12.9861 10.1536 12.8091 9.9692L6.30905 3.47587C5.87109 3.02625 5.27005 2.77266 4.64238 2.77266C4.01472 2.77266 3.41368 3.02625 2.97572 3.47587C2.53644 3.91259 2.28944 4.50644 2.28944 5.12587C2.28944 5.7453 2.53644 6.33915 2.97572 6.77587L9.50238 13.2759Z" fill="#15616D"/>
<path d="M4.95572 4.7492C4.75871 4.56563 4.45171 4.57105 4.2613 4.76146C4.07089 4.95186 4.06548 5.25886 4.24905 5.45587L7.05572 8.26254C7.25093 8.45751 7.56717 8.45751 7.76238 8.26254C7.95735 8.06732 7.95735 7.75108 7.76238 7.55587L4.95572 4.7492Z" fill="#15616D"/>
</g>
</g>
</svg>
