<svg width="16" height="17" viewBox="0 0 16 17" fill="none" xmlns="http://www.w3.org/2000/svg">
<g id="Interface essential/Trash">
<g id="Icon">
<path d="M12.5267 5.16683C12.2358 5.16683 12 5.40263 12 5.6935V11.5868C12 12.8276 10.9941 13.8335 9.75332 13.8335H5.96666C4.72586 13.8335 3.71999 12.8276 3.71999 11.5868V5.6935C3.71999 5.40263 3.48419 5.16683 3.19332 5.16683C2.90245 5.16683 2.66666 5.40263 2.66666 5.6935V11.5868C2.68494 13.4147 4.17198 14.8869 5.99999 14.8868H9.78666C11.6017 14.8688 13.0686 13.4018 13.0867 11.5868V5.6935C13.0869 5.54784 13.0269 5.40857 12.9208 5.30879C12.8147 5.209 12.672 5.15761 12.5267 5.16683Z" fill="#78290F"/>
<path fill-rule="evenodd" clip-rule="evenodd" d="M12.5267 4.22016H3.19332C2.90245 4.22016 2.66666 3.98437 2.66666 3.6935C2.66666 3.40263 2.90245 3.16683 3.19332 3.16683H4.95999L5.74666 2.3135C6.04737 2.00777 6.45783 1.83495 6.88666 1.8335H8.83332C9.2559 1.83349 9.66118 2.00136 9.95999 2.30016L10.76 3.16683H12.5267C12.8175 3.16683 13.0533 3.40263 13.0533 3.6935C13.0533 3.98437 12.8175 4.22016 12.5267 4.22016ZM8.83332 2.88683H6.88666C6.75338 2.88688 6.62495 2.93682 6.52666 3.02683L6.39999 3.16016H9.31999L9.19332 3.02683C9.09575 2.93567 8.96685 2.88554 8.83332 2.88683Z" fill="#78290F"/>
<path d="M5.35999 6.36016V8.36016C5.35999 8.63631 5.58385 8.86016 5.85999 8.86016C6.13613 8.86016 6.35999 8.63631 6.35999 8.36016V6.36016C6.35999 6.08402 6.13613 5.86016 5.85999 5.86016C5.58385 5.86016 5.35999 6.08402 5.35999 6.36016Z" fill="#78290F"/>
<path d="M7.35999 6.36016V11.6935C7.35999 11.9696 7.58385 12.1935 7.85999 12.1935C8.13613 12.1935 8.35999 11.9696 8.35999 11.6935V6.36016C8.35999 6.08402 8.13613 5.86016 7.85999 5.86016C7.58385 5.86016 7.35999 6.08402 7.35999 6.36016Z" fill="#78290F"/>
<path d="M9.35999 6.36016V8.36016C9.35999 8.63631 9.58385 8.86016 9.85999 8.86016C10.1361 8.86016 10.36 8.63631 10.36 8.36016V6.36016C10.36 6.08402 10.1361 5.86016 9.85999 5.86016C9.58385 5.86016 9.35999 6.08402 9.35999 6.36016Z" fill="#78290F"/>
</g>
</g>
</svg>
